<svg xmlns="http://www.w3.org/2000/svg" viewBox="0 0 199.34 41.64"><defs><style>.cls-1{fill:#2e9f9f;}</style></defs><g id="Layer_2" data-name="Layer 2"><g id="Layer_1-2" data-name="Layer 1"><path class="cls-1" d="M63.54,18.07a5,5,0,0,1-.41,4.14,5,5,0,0,1-4.35,2.52H47.48V7.14h11.3a5,5,0,0,1,5,5,4.87,4.87,0,0,1-.27,1.62,5.24,5.24,0,0,1-.39.87,5.13,5.13,0,0,1-1,1.28,4.78,4.78,0,0,1,1,1.25A5.8,5.8,0,0,1,63.54,18.07Zm-2.24-5.9a2.52,2.52,0,0,0-2.52-2.52H50v5h9.06a2.48,2.48,0,0,0,1.78-1.05A2.45,2.45,0,0,0,61.3,12.17Zm0,7.53a2.5,2.5,0,0,0-.46-1.45A2.53,2.53,0,0,0,59,17.19h-.07s0,0-.06,0H50v5h8.78A2.51,2.51,0,0,0,61.3,19.7Z"/><path class="cls-1" d="M67.36,24.73V7.13h2.52v17.6Z"/><path class="cls-1" d="M90.2,22.21v2.52H72.63l2.05-2.52L84.9,9.65H72.62V7.14H90.18l-2,2.51L77.92,22.21Z"/><path class="cls-1" d="M109.26,7.14V24.73h-2.52V12.06l-5.65,5.65-5.65-5.65V24.73H92.93V7.14h1.15l7,7,5.65-5.66,1.36-1.36Z"/><path class="cls-1" d="M130.53,15.22v9.51H128V17.19H115.45v7.54h-2.51V15.22c0-.19,0-.36,0-.55a8.8,8.8,0,0,1,17.56,0C130.52,14.86,130.53,15,130.53,15.22ZM128,14.67a6.28,6.28,0,0,0-12.52,0Z"/><path class="cls-1" d="M150.26,18.07a4.93,4.93,0,0,1,.27,1.63v5H148v-5a2.5,2.5,0,0,0-.46-1.45,2.53,2.53,0,0,0-1.85-1.06h-.07s0,0-.06,0h-8.86v7.53H134.2V7.14h11.3a5,5,0,0,1,5,5,4.87,4.87,0,0,1-.27,1.62,4.53,4.53,0,0,1-.39.87,5.13,5.13,0,0,1-1,1.28,4.78,4.78,0,0,1,1,1.25,4.48,4.48,0,0,1,.37.8ZM148,12.17a2.52,2.52,0,0,0-2.52-2.52h-8.78v5h9.06a2.48,2.48,0,0,0,1.78-1.05A2.45,2.45,0,0,0,148,12.17Z"/><path class="cls-1" d="M154.24,24.73V7.13h2.51v17.6Z"/><path class="cls-1" d="M177.13,7.14V24.73H176L163.32,12.07V24.73H160.8V7.14H162l1.36,1.36,11.29,11.3V7.14Z"/><path class="cls-1" d="M199.34,15.81v.49c0,.34,0,.68-.08,1H183a7,7,0,0,0,12.77,2.51h2.84a9.51,9.51,0,0,1-18.15-2.51,6.77,6.77,0,0,1-.08-1v-.49a7,7,0,0,1,.08-1,9.51,9.51,0,0,1,18.85,0C199.3,15.13,199.33,15.47,199.34,15.81Zm-2.63-1a7,7,0,0,0-13.76,0Z"/><path class="cls-1" d="M51.65,30.54v-.72H50.31v-.57h2v1.48a2.45,2.45,0,0,1-.94.95A2.54,2.54,0,0,1,50,32a2.49,2.49,0,0,1-1.83-.73,2.75,2.75,0,0,1,0-3.71A2.48,2.48,0,0,1,50,26.84a2.62,2.62,0,0,1,1.25.3,2.49,2.49,0,0,1,.92.85l-.52.37a1.67,1.67,0,0,0-.67-.7,2,2,0,0,0-1-.25,1.81,1.81,0,0,0-1.37.57,2,2,0,0,0-.55,1.45,1.94,1.94,0,0,0,.55,1.43,1.81,1.81,0,0,0,1.37.57,1.88,1.88,0,0,0,.93-.22A2,2,0,0,0,51.65,30.54Z"/><path class="cls-1" d="M53.45,28.07h.6v2.45a.89.89,0,0,0,.25.74,2.91,2.91,0,0,0,2.07,0,.89.89,0,0,0,.25-.74V28.07h.6v2.6a1.16,1.16,0,0,1-.45,1,3.52,3.52,0,0,1-2.89,0,1.15,1.15,0,0,1-.43-1Z"/><path class="cls-1" d="M58.54,31.88V28.05h.6v3.83Z"/><path class="cls-1" d="M62.16,28.06a2.12,2.12,0,0,1,1.51.54,2,2,0,0,1,0,2.76,2.14,2.14,0,0,1-1.52.52H60.47V28.06Zm0,.55h-1.1v2.72h1.1A1.48,1.48,0,0,0,63.24,31a1.41,1.41,0,0,0,0-2A1.45,1.45,0,0,0,62.17,28.61Z"/><path class="cls-1" d="M65.19,31.88V28.05h.61v3.83Z"/><path class="cls-1" d="M67.12,31.88V28.06h.32l2.42,2.68V28.06h.59v3.82h-.32l-2.42-2.67v2.67Z"/><path class="cls-1" d="M74.34,30.4v-.55h1.58V31a2.12,2.12,0,0,1-.86.74,2.86,2.86,0,0,1-1.24.26,2.55,2.55,0,0,1-1.72-.57A1.81,1.81,0,0,1,71.43,30a1.83,1.83,0,0,1,.67-1.45A2.57,2.57,0,0,1,73.82,28a2.79,2.79,0,0,1,1.18.23,2.14,2.14,0,0,1,.85.67l-.46.33a1.61,1.61,0,0,0-.66-.5,2.24,2.24,0,0,0-.91-.18,2,2,0,0,0-1.28.41,1.36,1.36,0,0,0,0,2.11,2,2,0,0,0,1.28.41,2.27,2.27,0,0,0,.91-.18,1.2,1.2,0,0,0,.58-.45V30.4Z"/><path class="cls-1" d="M80.12,31.88V27h.57l2,3,2-3h.56v4.93h-.61V28l-2,2.92-2-2.92v3.85Z"/><path class="cls-1" d="M85.87,31.88l1.94-3.82h.38l2,3.82H89.5l-.49-1H87l-.49,1Zm1.38-1.48h1.49L88,28.94Z"/><path class="cls-1" d="M91.32,30.21v1.67h-.6V28.07h2.63a1.34,1.34,0,0,1,.91.28,1,1,0,0,1,.34.78,1,1,0,0,1-.27.71,1.06,1.06,0,0,1-.68.36l1.06,1.68h-.65L93,30.21Zm0-.56h2a.73.73,0,0,0,.47-.13.47.47,0,0,0,.16-.39.46.46,0,0,0-.16-.38.73.73,0,0,0-.47-.13h-2Z"/><path class="cls-1" d="M95.68,31.88V28.05h.61v3.83Z"/><path class="cls-1" d="M97.61,31.88V28.06h.31l2.43,2.68V28.06h.59v3.82h-.32L98.2,29.21v2.67Z"/><path class="cls-1" d="M102.24,31.88V28.06h3.58v.56h-3v.95h2v.55h-2v1.21H106v.55Z"/><path class="cls-1" d="M109.51,31.14l.36-.53a4.25,4.25,0,0,0,1.09.62,3.16,3.16,0,0,0,1.11.21,1.94,1.94,0,0,0,1.11-.29.86.86,0,0,0,.43-.75.71.71,0,0,0-.3-.59,1.59,1.59,0,0,0-.85-.28l-.38,0a5.45,5.45,0,0,1-1.66-.29,1.29,1.29,0,0,1-.52-.42,1,1,0,0,1-.18-.59,1.17,1.17,0,0,1,.53-1,2.38,2.38,0,0,1,1.39-.38,3.61,3.61,0,0,1,1.21.2,4.51,4.51,0,0,1,1.15.6l-.36.51a3.6,3.6,0,0,0-1-.55,3.07,3.07,0,0,0-1-.19,1.85,1.85,0,0,0-.93.22.64.64,0,0,0-.36.54.48.48,0,0,0,.06.24.67.67,0,0,0,.18.2,2.75,2.75,0,0,0,1.31.29l.72.06a2.12,2.12,0,0,1,1.19.48,1.28,1.28,0,0,1,.44,1,1.37,1.37,0,0,1-.6,1.14,2.57,2.57,0,0,1-1.58.45,4.06,4.06,0,0,1-1.37-.22A4.14,4.14,0,0,1,109.51,31.14Z"/><path class="cls-1" d="M117.36,32a2.44,2.44,0,0,1-1.68-.58,1.91,1.91,0,0,1,0-2.89,2.76,2.76,0,0,1,3.36,0A1.81,1.81,0,0,1,119.7,30a1.83,1.83,0,0,1-.66,1.45A2.44,2.44,0,0,1,117.36,32Zm0-.56A1.85,1.85,0,0,0,118.6,31a1.32,1.32,0,0,0,.49-1.06,1.35,1.35,0,0,0-.49-1,2.08,2.08,0,0,0-2.48,0,1.4,1.4,0,0,0,0,2.11A1.85,1.85,0,0,0,117.36,31.44Z"/><path class="cls-1" d="M120.67,31.88V28.06h.6v3.27h2.83v.55Z"/><path class="cls-1" d="M124.79,28.07h.6v2.45a.86.86,0,0,0,.26.74,1.83,1.83,0,0,0,1,.19,1.91,1.91,0,0,0,1-.19.89.89,0,0,0,.26-.74V28.07h.59v2.6a1.18,1.18,0,0,1-.44,1,2.58,2.58,0,0,1-1.45.31,2.52,2.52,0,0,1-1.44-.31,1.13,1.13,0,0,1-.44-1Z"/><path class="cls-1" d="M130.78,31.88V28.59h-1.61v-.53H133v.53h-1.62v3.29Z"/><path class="cls-1" d="M133.58,31.88V28.05h.61v3.83Z"/><path class="cls-1" d="M137.51,32a2.41,2.41,0,0,1-1.67-.58,1.92,1.92,0,0,1,0-2.89,2.78,2.78,0,0,1,3.37,0,1.81,1.81,0,0,1,.66,1.44,1.83,1.83,0,0,1-.66,1.45A2.44,2.44,0,0,1,137.51,32Zm0-.56a1.88,1.88,0,0,0,1.25-.41,1.4,1.4,0,0,0,0-2.11,1.9,1.9,0,0,0-1.25-.41,1.87,1.87,0,0,0-1.24.41,1.4,1.4,0,0,0,0,2.11A1.87,1.87,0,0,0,137.51,31.44Z"/><path class="cls-1" d="M140.83,31.88V28.06h.32l2.42,2.68V28.06h.59v3.82h-.31l-2.43-2.67v2.67Z"/><path class="cls-1" d="M145.14,31.39l.29-.5a3.25,3.25,0,0,0,.86.41,2.85,2.85,0,0,0,.88.15,1.48,1.48,0,0,0,.83-.21.61.61,0,0,0,.31-.53.53.53,0,0,0-.29-.49,2.13,2.13,0,0,0-.9-.17,3.25,3.25,0,0,1-1.43-.24.82.82,0,0,1-.39-.76.91.91,0,0,1,.43-.79,2,2,0,0,1,1.15-.3,3.41,3.41,0,0,1,1.84.55l-.3.49a3,3,0,0,0-.77-.37,2.45,2.45,0,0,0-.78-.13,1.43,1.43,0,0,0-.7.15.45.45,0,0,0-.26.4.36.36,0,0,0,.26.36,2.8,2.8,0,0,0,.92.11,2.47,2.47,0,0,1,1.38.31,1,1,0,0,1,.47.91,1.09,1.09,0,0,1-.48.9,1.94,1.94,0,0,1-1.22.36,3.8,3.8,0,0,1-1.1-.16A3.48,3.48,0,0,1,145.14,31.39Z"/><path class="cls-1" d="M20.82,0A20.82,20.82,0,1,0,41.64,20.82,20.84,20.84,0,0,0,20.82,0Zm0,36.79a16,16,0,1,1,16-16A16,16,0,0,1,20.82,36.79Z"/><path class="cls-1" d="M28.34,16.07a.92.92,0,0,0-.07-1,.93.93,0,0,0-.9-.38L12.45,17.09a.93.93,0,0,0-.78,1.06,1,1,0,0,0,1.07.78l4.62-.73a1,1,0,0,1,1,1.43l-1.3,2.45a.94.94,0,0,0,.83,1.37h.14l2.8-.43a1,1,0,0,1,1,1.42l-2.19,4.19a.94.94,0,0,0,.4,1.26,1,1,0,0,0,.43.11,1,1,0,0,0,.83-.5l3.95-7.58h0Z"/></g></g></svg>