<svg xmlns="http://www.w3.org/2000/svg" viewBox="0 0 76.03 76.03"><defs><style>.cls-1{fill:#2e9f9f;}</style></defs><g id="Layer_2" data-name="Layer 2"><g id="Layer_1-2" data-name="Layer 1"><path class="cls-1" d="M38,0A38,38,0,1,0,76,38,38.06,38.06,0,0,0,38,0Zm0,67.18A29.17,29.17,0,1,1,67.18,38,29.19,29.19,0,0,1,38,67.18Z"/><path class="cls-1" d="M51.75,29.34a1.72,1.72,0,0,0-.12-1.79A1.7,1.7,0,0,0,50,26.87L22.74,31.2a1.71,1.71,0,0,0,.53,3.37l8.42-1.34a1.8,1.8,0,0,1,1.87,2.61L31.2,40.32a1.7,1.7,0,0,0,1.51,2.5,1.18,1.18,0,0,0,.26,0l5.1-.79a1.79,1.79,0,0,1,1.86,2.61l-4,7.64a1.71,1.71,0,1,0,3,1.58L46.19,40v0Z"/></g></g></svg>