<svg>

    <g data-v-0dd9719b="" fill="#333" class="iconlinesvg-g iconlinesvg"
        transform="translate(77.40576934814453,97.33186531066895)">
        <g transform="translate(0, 2.3920262695631536)">
            <g>
                <g class="imagesvg">
                    <g>
                        <rect fill="#333" fill-opacity="0" stroke-width="2" x="0" y="0"
                            width="36.207950218414936" height="36.68336665020155"
                            class="image-rect"></rect>
                        <svg x="0" y="0" width="36.207950218414936" height="36.68336665020155"
                            filtersec="colorsb1418640648" class="image-svg-svg primary"
                            style="overflow: visible;">
                            <svg xmlns="http://www.w3.org/2000/svg"
                                viewBox="0.00016951560974121094 0.012089967727661133 121.32344818115234 122.9166488647461">
                                <title>资源 87</title>
                                <path
                                    d="M116.9 36.17c-3.05-1.42-5.33-3.2-8-4.27-12.68-5.07-24.73-4.75-36 3.78A20.47 20.47 0 0 0 67.37 62c5 8.91 17.95 10.79 25.35 3.72a8.56 8.56 0 0 0 2.54-4.22c.55-2.4-.45-3.35-2.78-2.76-5.28 1.33-8.46.56-10-2.44-1.94-3.71-.71-9.78 2.56-12.65a14.58 14.58 0 0 1 7.56-3.41c11-1.75 20.94 2.46 25.12 11.93 4.65 10.52 5.29 21.48-1 31.72-4.5 7.28-11.28 11.09-20 11.32C89.08 95.38 82 93.59 75 91a123 123 0 0 0-21.84-6.32c-9.27-1.58-17.93 1-26.29 4.88-1 .46-2 .9-3 1.35-.52-1.07.24-1.47.66-2C34.4 76.28 39.69 62 39.74 45.93c0-13.12.06-26.24 0-39.36a3.59 3.59 0 0 1 3-4c25.4-7.23 52.19 1 68.18 23a39 39 0 0 1 5.98 10.6z"
                                    fill="#d7000f"></path>
                                <path
                                    d="M98.92 109.42a45.35 45.35 0 0 1-9.36 6.21c-8.43 4.22-17.26 7.22-26.77 7.29a58 58 0 0 1-15.3-1.78 122.55 122.55 0 0 1-14-4.77c-4.95-2-8.72-5.58-13-8.54-1.36-1-1.51-2.09.24-3.44 8.77-6.76 18.13-6.09 28.22-3.55 10.52 2.64 20.51 7.14 31.22 8.88 4.74.76 9.72 1 14.52-.47a5.29 5.29 0 0 1 4.23.17zM70.68 120.3a1.25 1.25 0 0 0-1.39-.88c-.77 0-1.85-.21-1.86 1 0 .75.86.75 1.45.77s1.48.05 1.8-.89zM21.14 15.91v44.38c.06 11.39-5.6 20.08-12.9 28.06-1 1.09-1.64 1.28-2.51-.24a35.74 35.74 0 0 1-2.88-7.5C-.22 70.25-1 60 1.45 49.16A65 65 0 0 1 10.68 27c2.7-4 5.65-7.86 10.46-11.09zM2.49 69a2 2 0 0 0 1.45-2c.06-.82-.36-1.48-1.22-1.43s-1.3.9-1.37 1.76 0 1.53 1.14 1.67z"
                                    fill="#324681"></path>
                            </svg>
                        </svg> <!---->
                    </g>
                </g>
            </g>
        </g>
        <g transform="translate(40, 0)">
            <g data-gra="path-name" fill="#333" transform="scale(1)">
                <path
                    d="M1.57-11.54C1.57-4.86 6.11 0.37 12.74 0.37C16.41 0.37 19.16-0.99 21.01-3.69L21.01 0L24.47 0L24.47-23.09L21.01-23.09L21.01-19.35C19.13-22.09 16.45-23.46 12.98-23.46C6.15-23.46 1.57-18.35 1.57-11.54ZM13.21-2.77C8.33-2.77 5.03-6.56 5.03-11.54C5.03-16.53 8.33-20.32 13.21-20.32C18.13-20.32 21.20-16.53 21.20-11.54C21.20-6.55 18.13-2.77 13.21-2.77Z"
                    transform="translate(-1.5700359158542845, 32.3242688558235)"></path>
            </g>
        </g>
        <g transform="translate(66, 0)">
            <g data-gra="path-name" fill="#333" transform="scale(1)">
                <path
                    d="M13.44-20.32C17.40-20.32 19.90-17.40 19.90-13.35L19.90 0L23.37 0L23.37-13.44C23.37-16.52 22.41-18.99 20.50-20.87C18.90-22.54 16.82-23.46 13.62-23.46C10.30-23.46 7.95-21.47 6.46-19.49L6.46-23.09L3.00-23.09L3.00 0L6.46 0L6.46-13.30C6.46-17.31 9.47-20.32 13.44-20.32Z"
                    transform="translate(-3.0015392508978964, 32.3242688558235)"></path>
            </g>
        </g>
        <g transform="translate(90, 0)">
            <g data-gra="path-name" fill="#333" transform="scale(1)">
                <path
                    d="M3.00-23.09L3.00 9.14L6.46 9.14L6.46-23.09ZM6.60-31.49L2.86-31.49L2.86-26.97L6.60-26.97Z"
                    transform="translate(-2.8630066700872243, 32.3242688558235)"></path>
            </g>
        </g>
        <g transform="translate(97, 0)">
            <g data-gra="path-name" fill="#333" transform="scale(1)">
                <path
                    d="M23.78-6.65L19.99-6.65C18.64-4.06 16.41-2.77 13.30-2.77C8.71-2.77 5.61-5.99 5.13-10.16L24.47-10.16L24.47-11.54C24.47-18.44 19.82-23.46 13.02-23.46C6.22-23.46 1.57-18.44 1.57-11.54C1.57-4.71 6.43 0.37 13.25 0.37C18.84 0.37 22.22-2.58 23.78-6.65ZM20.87-13.39L5.17-13.39C5.77-17.32 8.66-20.32 13.02-20.32C17.38-20.32 20.28-17.32 20.87-13.39Z"
                    transform="translate(-1.5700359158542843, 32.3242688558235)"></path>
            </g>
        </g>
        <g transform="translate(123, 0)">
            <g data-gra="path-name" fill="#333" transform="scale(1)">
                <path
                    d="M6.46 0L6.46-7.30L10.81-11.59L18.89 0L23.13 0L13.16-13.99L22.44-23.09L17.59-23.09L6.46-11.64L6.46-32.32L3.00-32.32L3.00 0Z"
                    transform="translate(-3.0015392508978964, 32.3242688558235)"></path>
            </g>
        </g>
        <g transform="translate(147, 0)">
            <g data-gra="path-name" fill="#333" transform="scale(1)">
                <path
                    d="M1.57-11.54C1.57-4.86 6.11 0.37 12.74 0.37C16.41 0.37 19.16-0.99 21.01-3.69L21.01 0L24.47 0L24.47-23.09L21.01-23.09L21.01-19.35C19.13-22.09 16.45-23.46 12.98-23.46C6.15-23.46 1.57-18.35 1.57-11.54ZM13.21-2.77C8.33-2.77 5.03-6.56 5.03-11.54C5.03-16.53 8.33-20.32 13.21-20.32C18.13-20.32 21.20-16.53 21.20-11.54C21.20-6.55 18.13-2.77 13.21-2.77Z"
                    transform="translate(-1.5700359158542845, 32.3242688558235)"></path>
            </g>
        </g>
        <g transform="translate(173, 0)">
            <g data-gra="path-name" fill="#333" transform="scale(1)">
                <path
                    d="M6.46-17.41L6.46-23.09L3.00-23.09L3.00 0L6.46 0L6.46-10.16C6.46-15.34 9.74-19.99 14.78-19.99L15.19-19.99L15.19-23.46L14.96-23.46C10.42-23.46 7.46-20.66 6.46-17.41Z"
                    transform="translate(-3.0015392508978964, 32.3242688558235)"></path>
            </g>
        </g>
    </g>
    <g data-gra="path-slogan" fill-rule="" class="tp-slogan" fill="#333"
        transform="matrix(1,0,0,1,5,47.46000289916992)" opacity="1">
        <rect x="0" height="1" y="3.434999942779541" width="65.6942310333252"></rect>
        <rect height="1" y="3.434999942779541" width="65.6942310333252" x="109.49423027038574"></rect>
        <g transform="translate(68.6942310333252,0)">
            <g transform="scale(1)">
                <path
                    d="M1.08-7.87L1.08 0L2.00 0L2.00-4.33C2.00-4.68 1.99-5.07 1.96-5.50C1.92-5.92 1.90-6.31 1.87-6.66L1.92-6.66L2.54-4.91L4.07-0.79L4.63-0.79L6.14-4.91L6.78-6.66L6.83-6.66C6.80-6.31 6.77-5.92 6.74-5.50C6.71-5.07 6.70-4.68 6.70-4.33L6.70 0L7.64 0L7.64-7.87L6.47-7.87L4.96-3.65L4.40-2.04L4.36-2.04L3.78-3.65L2.26-7.87ZM13.15-3.20L10.79-3.20L11.16-4.40C11.30-4.84 11.44-5.28 11.57-5.72C11.70-6.15 11.82-6.60 11.94-7.06L11.99-7.06C12.12-6.60 12.24-6.15 12.37-5.72C12.50-5.28 12.64-4.84 12.78-4.40ZM13.40-2.40L14.15 0L15.22 0L12.55-7.87L11.42-7.87L8.76 0L9.78 0L10.54-2.40ZM17.33-4.14L17.33-7.07L18.65-7.07C19.26-7.07 19.74-6.96 20.06-6.76C20.39-6.55 20.56-6.18 20.56-5.66C20.56-5.15 20.39-4.77 20.06-4.52C19.74-4.27 19.26-4.14 18.65-4.14ZM20.65 0L21.78 0L19.79-3.43C20.32-3.57 20.75-3.82 21.07-4.19C21.39-4.56 21.55-5.05 21.55-5.66C21.55-6.07 21.48-6.42 21.35-6.70C21.21-6.98 21.02-7.20 20.78-7.38C20.53-7.56 20.24-7.68 19.90-7.76C19.56-7.83 19.19-7.87 18.79-7.87L16.33-7.87L16.33 0L17.33 0L17.33-3.32L18.76-3.32ZM23.30-7.87L23.30 0L24.30 0L24.30-7.87ZM26.46-7.87L26.46 0L27.41 0L27.41-4.12C27.41-4.53 27.39-4.95 27.37-5.36C27.34-5.77 27.31-6.18 27.28-6.58L27.32-6.58L28.18-4.96L31.03 0L32.06 0L32.06-7.87L31.12-7.87L31.12-3.80C31.12-3.39 31.13-2.97 31.16-2.54C31.19-2.11 31.21-1.70 31.24-1.30L31.19-1.30L30.34-2.93L27.49-7.87ZM34.22-7.87L34.22 0L38.88 0L38.88-0.85L35.22-0.85L35.22-3.71L38.21-3.71L38.21-4.56L35.22-4.56L35.22-7.03L38.76-7.03L38.76-7.87Z"
                    transform="translate(-1.08, 7.872)"></path>
            </g>
        </g>
    </g>
</svg>